<?xml version="1.0" standalone="no"?>
<!DOCTYPE svg PUBLIC "-//W3C//DTD SVG 1.1//EN" "http://www.w3.org/Graphics/SVG/1.1/DTD/svg11.dtd" >
<svg xmlns="http://www.w3.org/2000/svg">
<metadata></metadata>
<defs>
<font id="kite_display_lightlight" horiz-adv-x="1097" >
<font-face units-per-em="2048" ascent="1536" descent="-512" />
<missing-glyph horiz-adv-x="563" />
<glyph unicode="tt" horiz-adv-x="1351" d="M49 887v114h148v363l155 63v-426h482v363l155 63v-426h293l-18 -114h-275v-611q0 -82 26.5 -124.5t92.5 -42.5q82 0 156 38l-23 -133q-84 -41 -158 -41q-126 0 -187.5 75.5t-61.5 248.5v590h-482v-611q0 -82 26.5 -124.5t90.5 -42.5q84 0 158 38l-23 -133 q-84 -41 -160 -41q-124 0 -185.5 75.5t-61.5 248.5v590h-148z" />
<glyph unicode="&#xfb01;" horiz-adv-x="1007" d="M117 0v1030q0 188 84.5 292.5t265.5 104.5q59 0 145 -14l-18 -115q-63 17 -117 17q-205 0 -205 -260v-54h596v-1001h-155v887h-441v-887h-155zM655 1278q124 -49 213 -141v229z" />
<glyph unicode="&#xfb02;" horiz-adv-x="1007" d="M117 0v1028q0 189 85 294t265 105q56 0 147 -14l-20 -115q-52 15 -117 15q-205 0 -205 -260v-52h441v363l155 63v-1427h-155v887h-441v-887h-155z" />
<glyph unicode="&#xfb03;" horiz-adv-x="1603" d="M117 0v1030q0 188 84.5 292.5t265.5 104.5q59 0 145 -14l-18 -115q-59 17 -117 17q-205 0 -205 -260v-54h441v29q0 188 84.5 292.5t265.5 104.5q59 0 145 -14l-18 -115q-63 17 -117 17q-205 0 -205 -260v-54h596v-1001h-155v887h-441v-887h-155v887h-441v-887h-155z M1251 1278l213 88v-229q-51 51 -99 83t-114 58z" />
<glyph unicode="&#xfb04;" horiz-adv-x="1601" d="M117 0v1028q0 189 84 294t264 105q56 0 147 -14l-20 -115q-52 15 -117 15q-205 0 -205 -260v-52h441v27q0 189 85 294t265 105q56 0 147 -14l-20 -115q-52 15 -117 15q-205 0 -205 -260v-52h441v363l155 63v-1427h-155v887h-441v-887h-155v887h-441v-887h-153z" />
<glyph horiz-adv-x="2048" />
<glyph horiz-adv-x="2048" />
<glyph unicode="&#xd;" horiz-adv-x="2048" />
<glyph unicode=" "  horiz-adv-x="563" />
<glyph unicode="&#x09;" horiz-adv-x="563" />
<glyph unicode="&#xa0;" horiz-adv-x="563" />
<glyph unicode="!" horiz-adv-x="458" d="M129 0v115l203 84v-199h-203zM147 1391h164l-16 -1039h-131z" />
<glyph unicode="&#x22;" horiz-adv-x="704" d="M121 850v422l190 76l-65 -498h-125zM406 850v422l190 76l-66 -498h-124z" />
<glyph unicode="#" d="M92 489l23 132h182l39 253h-184l20 132h182l41 268h121l-39 -268h238l39 268h120l-38 -268h172l-23 -132h-168l-37 -253h170l-20 -132h-170l-39 -268h-123l41 268h-240l-41 -268h-120l41 268h-187zM418 621h239l37 253h-237z" />
<glyph unicode="$" horiz-adv-x="1040" d="M70 94l24 142q178 -89 383 -89q122 0 202.5 58.5t80.5 169.5q0 27 -10.5 53.5t-26 48.5t-42.5 46t-51 42t-62 41t-64.5 37.5t-68.5 37.5q-9 5 -13 7q-58 32 -97.5 56.5t-84.5 60t-71.5 68.5t-44.5 77.5t-18 93.5q0 143 89 230t233 108v181l121 51v-228q170 -6 319 -94 l-69 -118q-48 30 -121.5 55.5t-151.5 25.5q-42 0 -83 -8.5t-84 -28t-70 -60.5t-27 -97q0 -32 14 -61t31.5 -49.5t53.5 -46t60.5 -39.5t73 -40t70.5 -39q144 -81 201 -127q147 -119 147 -286q0 -149 -95.5 -243.5t-268.5 -109.5v-188l-121 -51v233q-197 5 -358 80z" />
<glyph unicode="%" horiz-adv-x="1474" d="M70 1069q0 150 86 249t225 99t218 -92.5t79 -239.5q0 -164 -89.5 -257t-217.5 -93q-130 0 -215.5 90.5t-85.5 243.5zM190 1073q-2 -108 49 -176t140 -68t134.5 64t45.5 182q0 110 -44.5 177t-137.5 67q-91 0 -139 -69t-48 -177zM260 16l109 -45l843 1401l-106 43z M797 307q0 150 86 249t225 99t218 -92t79 -237q0 -165 -89.5 -259t-217.5 -94q-129 0 -215 91t-86 243zM918 311q-2 -107 48.5 -174t139.5 -67t134.5 63t45.5 180q0 111 -44.5 178.5t-137.5 67.5q-90 0 -138 -70t-48 -178z" />
<glyph unicode="&#x26;" horiz-adv-x="1181" d="M80 336q0 274 287 418q-168 183 -168 342q0 58 18 112.5t55 103t103 78t153 29.5q150 0 243 -76.5t93 -201.5q0 -223 -311 -393l356 -424q38 56 69.5 144.5t45.5 158.5l119 -54q-19 -85 -61 -178.5t-95 -165.5l158 -186l-129 -57l-117 141q-167 -154 -381 -154 q-198 0 -318 98t-120 265zM240 356q0 -119 75.5 -188.5t210.5 -69.5q72 0 153 29.5t142 89.5l-387 457q-99 -53 -146.5 -139t-47.5 -179zM344 1118q0 -74 42.5 -154.5t107.5 -144.5q109 64 170 145t61 160q0 84 -55.5 139.5t-137.5 55.5q-86 0 -137 -55.5t-51 -145.5z" />
<glyph unicode="'" horiz-adv-x="419" d="M121 850v422l190 76l-65 -498h-125z" />
<glyph unicode="(" horiz-adv-x="665" d="M137 592q0 123 25.5 246t63 221t90 193.5t97.5 160.5t95 125l115 -45q-52 -66 -91 -123.5t-85.5 -145.5t-76.5 -175.5t-50.5 -204.5t-20.5 -242q0 -499 324 -909l-115 -47q-50 60 -95 125t-97.5 161t-90 194t-63 221t-25.5 245z" />
<glyph unicode=")" horiz-adv-x="665" d="M43 -307q324 410 324 909q0 125 -20.5 242t-50.5 204.5t-76.5 175.5t-85.5 145.5t-91 123.5l115 45q50 -60 95 -125t97.5 -160.5t90 -193.5t62.5 -221t25 -246q0 -122 -25 -245t-62.5 -221t-90 -194t-98 -161t-94.5 -125z" />
<glyph unicode="*" horiz-adv-x="792" d="M76 1124l37 105l239 -99l-16 261h123l-19 -261l240 99l37 -105l-256 -67l174 -199l-96 -65l-144 223l-139 -223l-96 65l172 199z" />
<glyph unicode="+" horiz-adv-x="1085" d="M98 530l21 123h348v361h145v-361h373l-20 -123h-353v-387h-145v387h-369z" />
<glyph unicode="," horiz-adv-x="444" d="M121 0v113l203 86v-150q0 -109 -46.5 -164t-130.5 -78q66 69 66 193h-92z" />
<glyph unicode="-" horiz-adv-x="677" d="M96 532v134h488l-23 -134h-465z" />
<glyph unicode="." horiz-adv-x="444" d="M121 0v115l203 84v-199h-203z" />
<glyph unicode="/" horiz-adv-x="632" d="M49 -98l447 1517l129 -39l-447 -1517z" />
<glyph unicode="0" horiz-adv-x="1140" d="M88 694q0 156 30 286t88.5 229t153 154.5t215.5 55.5q99 0 180 -38t135.5 -103.5t91.5 -156.5t54 -195t17 -221q0 -219 -53 -381.5t-164 -256.5t-269 -94q-120 0 -213.5 56.5t-150.5 156t-86 228t-29 280.5zM248 668q0 -285 85 -429.5t238 -144.5q155 0 236.5 152 t81.5 452q0 296 -81 448t-239 152t-239.5 -158t-81.5 -472z" />
<glyph unicode="1" horiz-adv-x="659" d="M88 1307l244 84h155v-1391h-155v1260l-221 -80z" />
<glyph unicode="2" horiz-adv-x="1060" d="M102 0v68q0 99 28.5 182.5t97.5 161t112.5 116.5t142.5 116q7 6 11.5 9.5t11.5 9t12 9.5q53 42 85.5 69.5t73 69t62.5 77t38 81.5t16 94q0 112 -66 168.5t-182 56.5q-101 0 -204 -45t-169 -104l-61 104q83 82 205 128t247 46q196 0 293.5 -97t97.5 -255 q0 -128 -95 -256.5t-243 -241.5q-14 -11 -46.5 -34.5t-53.5 -39.5t-53.5 -43t-54.5 -49t-48.5 -53.5t-43.5 -61t-31 -66.5t-19 -75h697l-23 -145h-838z" />
<glyph unicode="3" horiz-adv-x="1085" d="M90 61l25 152q75 -44 168.5 -73t175.5 -29q147 0 248.5 80.5t101.5 216.5q0 290 -377 290v97q87 0 158 27t116.5 84.5t45.5 137.5q0 123 -71 184.5t-175 61.5q-172 0 -338 -145l-64 108q67 70 171.5 117t213.5 47q200 0 312 -103t112 -263q0 -105 -51.5 -181.5 t-134.5 -113.5q119 -39 181.5 -128t62.5 -214q0 -203 -135 -322t-365 -119q-95 0 -197 24t-184 64z" />
<glyph unicode="4" horiz-adv-x="1081" d="M63 307v146l510 938h164l-510 -938h455v342l156 63v-405h206v-146h-206v-307h-156v307h-619z" />
<glyph unicode="5" horiz-adv-x="1060" d="M98 27l23 139q144 -64 280 -64q181 0 278 82t97 238q0 332 -432 332q-118 0 -182 -17l53 654h709l-21 -129h-567l-33 -394q89 9 143 9q124 0 220.5 -36t154.5 -99t87.5 -142.5t29.5 -171.5q0 -212 -128 -333.5t-388 -121.5q-176 0 -324 54z" />
<glyph unicode="6" horiz-adv-x="1050" d="M76 586q0 186 53 339.5t152.5 263t250.5 170t340 60.5l-22 -108q-51 -3 -100 -12t-113.5 -30.5t-119.5 -53t-110 -86t-93.5 -124t-62 -171t-22.5 -222.5q31 104 126 165t202 61q187 0 301.5 -109t114.5 -305q0 -202 -127.5 -326.5t-317.5 -124.5q-97 0 -174.5 34 t-128.5 91t-85 136.5t-49 166.5t-15 185zM264 410q0 -128 76 -218t199 -90t197.5 89.5t74.5 218.5q0 134 -71 220.5t-201 86.5q-129 0 -202 -87t-73 -220z" />
<glyph unicode="7" horiz-adv-x="1165" d="M115 1262l20 129h916v-99l-566 -1292h-168l562 1262h-764z" />
<glyph unicode="8" horiz-adv-x="1042" d="M80 371q0 69 27.5 133t71 110.5t90 80t93.5 53.5q-227 125 -227 315q0 160 113 257t270 99q182 0 286.5 -94t104.5 -252q0 -97 -62 -185.5t-147 -139.5q44 -24 77 -46t70 -55.5t60.5 -69.5t39.5 -86t16 -106q0 -190 -119 -301t-332 -111q-204 0 -318 104t-114 294z M233 383q0 -129 80 -207t203 -78q130 0 210.5 75t80.5 206q0 110 -75.5 180.5t-239.5 134.5q-110 -52 -184.5 -132t-74.5 -179zM276 1075q0 -196 279 -274q102 41 156.5 117t54.5 163q0 110 -68 168t-178 58q-109 0 -176.5 -66t-67.5 -166z" />
<glyph unicode="9" horiz-adv-x="1050" d="M76 969q0 202 127 326t317 124q120 0 210 -50.5t141.5 -138.5t76.5 -194t25 -229q0 -249 -91.5 -436t-273 -292.5t-432.5 -105.5l23 109q51 3 100 11.5t113.5 30t119 53.5t109.5 86t93.5 123.5t62 171t22.5 222.5q-31 -104 -125.5 -164.5t-201.5 -60.5q-187 0 -301.5 109 t-114.5 305zM238 983q0 -134 71 -220.5t201 -86.5q129 0 201.5 87t72.5 220q0 129 -75.5 218t-198.5 89q-124 0 -198 -89t-74 -218z" />
<glyph unicode=":" horiz-adv-x="444" d="M121 0v115l203 84v-199h-203zM121 774v115l203 84v-199h-203z" />
<glyph unicode=";" horiz-adv-x="444" d="M121 0v113l203 86v-150q0 -109 -46.5 -164t-130.5 -78q66 69 66 193h-92zM121 774v115l203 84v-199h-203z" />
<glyph unicode="&#x3c;" horiz-adv-x="937" d="M129 541v143l621 295l59 -137l-520 -232l520 -227l-59 -139z" />
<glyph unicode="=" horiz-adv-x="974" d="M98 340l23 139h756l-23 -139h-756zM98 723l23 139h756l-23 -139h-756z" />
<glyph unicode="&#x3e;" horiz-adv-x="937" d="M129 383l520 227l-520 232l59 137l621 -295v-143l-621 -297z" />
<glyph unicode="?" horiz-adv-x="980" d="M92 1317q51 29 91.5 47.5t117 36.5t160.5 18q112 0 204.5 -38t152 -120.5t59.5 -197.5q0 -64 -20.5 -119.5t-53.5 -97t-73 -78.5t-79.5 -70t-72.5 -65.5t-53.5 -71t-20.5 -80.5v-127h-135v152q0 56 19.5 104t51 84t69.5 69t76 65t69.5 65.5t51 77t19.5 92.5 q0 78 -42 128.5t-102 69.5t-135 19q-141 0 -282 -86zM334 0h203v199l-203 -84v-115z" />
<glyph unicode="@" horiz-adv-x="1765" d="M117 543q0 139 38.5 270t113.5 240t176.5 190.5t235 127.5t282.5 46q198 0 354.5 -85t244 -236.5t87.5 -341.5q0 -141 -51.5 -266t-148.5 -204t-216 -79q-145 0 -186 110q-41 -43 -105 -76.5t-127 -33.5q-129 0 -210 87t-81 226q0 104 36 196.5t92.5 154t125.5 97 t135 35.5q64 0 117.5 -24.5t73.5 -65.5l12 70h127q-76 -446 -88 -541q-17 -112 100 -112q40 0 83.5 28.5t82 80t63.5 134.5t25 181q0 118 -37 219t-107 176.5t-178.5 118.5t-242.5 43q-137 0 -260.5 -53t-216.5 -148t-148 -237t-55 -310q0 -149 45 -269t125 -198.5t191 -120 t243 -41.5q202 0 344 74l9 -112q-178 -76 -398 -76q-141 0 -268.5 50.5t-225 142t-155 230t-57.5 302.5zM674 512q0 -92 39.5 -148.5t122.5 -56.5q42 0 96.5 33t87.5 78l51 323q9 63 -36 113.5t-105 50.5q-76 0 -136.5 -63t-90 -152t-29.5 -178z" />
<glyph unicode="A" horiz-adv-x="1251" d="M49 0l492 1391h155l494 -1391h-156l-139 406h-551l-139 -406h-156zM395 551h449l-226 649z" />
<glyph unicode="B" horiz-adv-x="1075" d="M152 0v1391h333q213 0 328 -88.5t115 -249.5q0 -119 -48.5 -200t-154.5 -130q120 -27 188 -118t68 -232q0 -177 -129 -275t-356 -98h-344zM309 119h178q78 0 139.5 18.5t97 46t58.5 64t31 69t8 64.5q0 40 -7 75t-27.5 71.5t-52.5 62t-86.5 41.5t-125.5 16h-213v-528z M309 788h164q153 0 221 61t68 187q0 45 -14 84.5t-44.5 75.5t-88.5 57t-138 21h-168v-486z" />
<glyph unicode="C" horiz-adv-x="1193" d="M86 676q0 174 58 317t156 235t224.5 141.5t266.5 49.5q196 0 335 -61l-20 -129q-180 61 -313 61q-85 0 -164 -22.5t-149.5 -70.5t-122.5 -117t-82.5 -169t-30.5 -219q0 -275 141 -432.5t391 -157.5q140 0 326 66l20 -127q-145 -68 -362 -68q-158 0 -286.5 53.5 t-213 148.5t-129.5 223t-45 278z" />
<glyph unicode="D" horiz-adv-x="1316" d="M152 0v1391h284q201 0 354.5 -49t249.5 -140t144.5 -213.5t48.5 -275.5q0 -152 -49 -280t-145.5 -225.5t-252.5 -152.5t-358 -55h-276zM307 119h127q302 0 472.5 153t170.5 437t-168 423.5t-487 139.5h-115v-1153z" />
<glyph unicode="E" horiz-adv-x="1003" d="M152 0v1391h749v-146h-594v-444h504l-23 -146h-481v-510h604l-22 -145h-737z" />
<glyph unicode="F" horiz-adv-x="983" d="M152 0v1391h749v-146h-594v-444h492l-23 -146h-469v-655h-155z" />
<glyph unicode="G" horiz-adv-x="1341" d="M86 676q0 174 58 317t156 235t224.5 141.5t266.5 49.5q185 0 354 -67l-19 -125q-189 63 -331 63q-85 0 -164 -22.5t-149.5 -70.5t-122.5 -117t-82.5 -169t-30.5 -219q0 -274 142 -432t390 -158q148 0 285 45v471h-279l23 146h412v-696q-93 -47 -220.5 -71t-238.5 -24 q-158 0 -286.5 53.5t-213 148.5t-129.5 223t-45 278z" />
<glyph unicode="H" horiz-adv-x="1349" d="M152 0v1391h155v-592h735v592h156v-1391h-156v653h-735v-653h-155z" />
<glyph unicode="I" horiz-adv-x="456" d="M152 0v1391h153v-1391h-153z" />
<glyph unicode="J" horiz-adv-x="563" d="M-4 -106q66 11 114 36t77.5 58.5t47 82.5t23.5 100.5t6 119.5v1100h156v-1108q0 -84 -10 -152t-37 -134t-71 -112t-116.5 -78.5t-169.5 -42.5z" />
<glyph unicode="K" horiz-adv-x="1134" d="M152 0v1391h155v-643l598 643h185l-543 -582l579 -809h-182l-500 700l-137 -149v-551h-155z" />
<glyph unicode="L" horiz-adv-x="952" d="M152 0v1391h155v-1246h596l-22 -145h-729z" />
<glyph unicode="M" horiz-adv-x="1646" d="M119 0l104 1391h244l344 -1129l375 1129h239l103 -1391h-168l-80 1214l-410 -1214h-137l-373 1231l-92 -1231h-149z" />
<glyph unicode="N" horiz-adv-x="1294" d="M152 0v1391h229l616 -1143v1143h146v-1391h-182l-666 1231v-1231h-143z" />
<glyph unicode="O" horiz-adv-x="1472" d="M86 686q0 156 47.5 291.5t132 233t208.5 153t271 55.5q151 0 274 -56t202.5 -153t122 -225t42.5 -274q0 -342 -181 -540t-482 -198q-194 0 -340 95.5t-221.5 256t-75.5 361.5zM244 694q0 -168 58 -301.5t170.5 -212t262.5 -78.5q152 0 264 78t169 213t57 309 q0 120 -32.5 226t-92.5 187t-153.5 128t-207.5 47q-154 0 -268 -80.5t-170.5 -214t-56.5 -301.5z" />
<glyph unicode="P" horiz-adv-x="1054" d="M152 0v1391h340q485 0 485 -400q0 -92 -32 -164t-81 -114.5t-113.5 -70t-122.5 -37t-116 -9.5h-205v-596h-155zM307 741h172q161 0 245.5 66t84.5 194q0 124 -82 190t-238 66h-182v-516z" />
<glyph unicode="Q" horiz-adv-x="1472" d="M86 688q0 208 80.5 374t231.5 261.5t347 95.5q151 0 274 -56t202.5 -153t122 -224.5t42.5 -272.5q0 -262 -109 -443t-302 -252l307 -122l-96 -134l-436 213h-17q-195 0 -341 87q-151 90 -228.5 251.5t-77.5 374.5zM244 694q0 -168 58 -301.5t170.5 -212t262.5 -78.5 q227 0 357.5 166.5t130.5 431.5q0 120 -32 226t-92 187.5t-153 129t-207 47.5q-154 0 -268 -81t-170.5 -214.5t-56.5 -300.5z" />
<glyph unicode="R" horiz-adv-x="1062" d="M152 0v1391h340q487 0 487 -400q0 -85 -31 -154.5t-83.5 -114t-111 -72.5t-124.5 -42l418 -608h-181l-407 596h-152v-596h-155zM307 741h172q161 0 245.5 66t84.5 194q0 124 -81.5 190t-238.5 66h-182v-516z" />
<glyph unicode="S" horiz-adv-x="1036" d="M86 53l27 148q75 -38 176 -68.5t178 -30.5q152 0 240 66.5t88 200.5q0 43 -19 81.5t-47 67.5t-76 59t-89 50.5t-103 48.5q-75 33 -130 65.5t-108.5 78t-81.5 104t-28 127.5q0 173 119 270.5t296 97.5q88 0 167 -19t117.5 -37t86.5 -46l-70 -117q-148 90 -286 90 q-43 0 -86 -9.5t-89 -32t-75 -69t-29 -110.5q0 -53 20.5 -94t72 -76.5t88 -54.5t119.5 -55q13 -6 20 -9q366 -162 366 -407q0 -180 -122.5 -290t-356.5 -110q-225 0 -385 80z" />
<glyph unicode="T" horiz-adv-x="1064" d="M45 1245v146h985l-24 -146h-412v-1245h-156v1245h-393z" />
<glyph unicode="U" horiz-adv-x="1282" d="M150 477v914h153v-897q0 -396 338 -396q93 0 160 28.5t104.5 83.5t54.5 124t17 160v897h156v-914q0 -255 -122 -379.5t-370 -124.5q-237 0 -364 126.5t-127 377.5z" />
<glyph unicode="V" horiz-adv-x="1230" d="M33 1391h160l425 -1223l431 1223h155l-508 -1391h-155z" />
<glyph unicode="W" horiz-adv-x="1763" d="M45 1391h160l289 -1192l315 1192h186l301 -1192l271 1192h155l-350 -1391h-164l-315 1223l-318 -1223h-165z" />
<glyph unicode="X" horiz-adv-x="1181" d="M47 0l461 700l-451 693h187l356 -551l363 551h155l-440 -670l469 -723h-184l-377 582l-383 -582h-156z" />
<glyph unicode="Y" horiz-adv-x="1093" d="M33 1391h166l352 -693l352 693h164l-444 -828v-563h-156v571z" />
<glyph unicode="Z" horiz-adv-x="1021" d="M63 0v125l734 1137h-705v129h869v-123l-721 -1123h733l-25 -145h-885z" />
<glyph unicode="[" horiz-adv-x="702" d="M166 -348v1884h459l-21 -141h-285v-1602h285l21 -141h-459z" />
<glyph unicode="\" horiz-adv-x="665" d="M49 1382l121 37l446 -1517l-120 -37z" />
<glyph unicode="]" horiz-adv-x="702" d="M78 -348l20 141h285v1602h-285l-20 141h459v-1884h-459z" />
<glyph unicode="_" horiz-adv-x="1075" d="M27 -211h1022v-111h-1022v111z" />
<glyph unicode="`" horiz-adv-x="663" d="M27 1366h225l240 -260h-150z" />
<glyph unicode="a" horiz-adv-x="1130" d="M82 489q0 145 61 268t171 197t245 74q87 0 159 -32t118 -85v90h155v-1001h-155v82q-51 -51 -135 -80t-164 -29q-208 0 -331.5 138t-123.5 378zM229 485q0 -93 28 -168t74 -120t101 -69t113 -24q194 0 291 119v467q0 54 -25 96t-65 65.5t-83.5 35.5t-87.5 12 q-154 0 -250 -113.5t-96 -300.5z" />
<glyph unicode="b" horiz-adv-x="1136" d="M139 0v1362l154 65v-518q47 54 118 86.5t158 32.5q136 0 247 -74.5t172 -197.5t61 -267q0 -240 -123.5 -378t-333.5 -138q-79 0 -163 29t-136 78v-80h-154zM293 221q98 -117 291 -117q59 0 114 23.5t100.5 69t73 120t27.5 168.5q0 186 -95.5 299t-250.5 113 q-43 0 -86 -11.5t-83.5 -35t-65.5 -65.5t-25 -97v-467z" />
<glyph unicode="c" horiz-adv-x="952" d="M82 487q0 250 144.5 395.5t402.5 145.5q93 0 151 -13t121 -40l-41 -129q-66 24 -116 33.5t-128 9.5q-74 0 -139.5 -23.5t-118.5 -69t-83.5 -121t-30.5 -171.5q0 -95 24 -168t60.5 -115t86.5 -69t94.5 -36.5t90.5 -9.5q147 0 283 62l-25 -152q-126 -43 -270 -43 q-149 0 -265.5 68t-178.5 184.5t-62 261.5z" />
<glyph unicode="d" horiz-adv-x="1130" d="M82 489q0 144 61 267t171 197.5t245 74.5q87 0 159.5 -32.5t117.5 -86.5v453l155 65v-1427h-155v80q-51 -49 -134.5 -78t-164.5 -29q-208 0 -331.5 138t-123.5 378zM231 485q0 -75 18.5 -139t49 -108t71.5 -74.5t85.5 -45t91.5 -14.5q194 0 289 117v467q0 55 -25 97 t-65 65.5t-82.5 35t-85.5 11.5q-155 0 -251 -113t-96 -299z" />
<glyph unicode="e" horiz-adv-x="1083" d="M82 504q0 105 27.5 192.5t74.5 148t109.5 102.5t132.5 61.5t145 19.5q209 0 324 -128t115 -361q0 -36 -4 -86h-768q5 -114 60 -194.5t138.5 -117.5t186.5 -37q66 0 151.5 21.5t157.5 56.5l-25 -141q-56 -28 -135 -48t-156 -20q-255 0 -394.5 138t-139.5 393zM240 575h622 q0 324 -293 324q-137 0 -231.5 -95.5t-97.5 -228.5z" />
<glyph unicode="f" horiz-adv-x="606" d="M117 0v1028q0 191 79.5 295t258.5 104q105 0 182 -18l-19 -115q-83 19 -153 19q-205 0 -205 -260v-52h309l-18 -114h-291v-887h-143z" />
<glyph unicode="g" horiz-adv-x="1130" d="M82 487q0 145 60.5 268.5t171.5 198t247 74.5q87 0 158.5 -32.5t116.5 -86.5v92h155v-1003q0 -215 -123 -334t-323 -119q-84 0 -183.5 20.5t-158.5 45.5l-25 153q211 -88 348 -88q310 0 310 308v96q-51 -49 -134 -78t-163 -29q-211 0 -334 137t-123 377zM231 483 q0 -93 27.5 -167.5t73.5 -119.5t101 -68.5t114 -23.5q194 0 289 117v467q0 55 -25 97t-65 65.5t-82.5 35t-85.5 11.5q-155 0 -251 -113t-96 -301z" />
<glyph unicode="h" d="M139 0v1364l156 63v-561q59 77 146.5 119.5t189.5 42.5q156 0 241.5 -86.5t85.5 -243.5v-698h-155v614q0 155 -43 215t-154 60q-123 0 -219 -90q-92 -92 -92 -201v-598h-156z" />
<glyph unicode="i" horiz-adv-x="434" d="M82 1278l213 88v-229q-93 93 -213 141zM139 0v1001h156v-1001h-156z" />
<glyph unicode="j" horiz-adv-x="432" d="M-18 -350q80 10 118.5 49.5t38.5 146.5v1155h154v-1175q0 -147 -75 -213t-220 -66zM80 1278l213 88v-229q-93 93 -213 141z" />
<glyph unicode="k" horiz-adv-x="933" d="M139 0v1364l156 63v-845l422 419h209l-443 -407l473 -594h-178l-401 492l-82 -76v-416h-156z" />
<glyph unicode="l" horiz-adv-x="432" d="M139 0v1364l154 63v-1427h-154z" />
<glyph unicode="m" horiz-adv-x="1718" d="M139 0v1001h154v-135q121 162 317 162q225 0 297 -170q62 74 156 122t190 48q156 0 241 -86.5t85 -243.5v-698h-154v614q0 155 -43 216t-153 61t-201.5 -87.5t-91.5 -203.5v-600h-154v614q0 155 -43 216t-153 61q-112 0 -202.5 -86.5t-90.5 -206.5v-598h-154z" />
<glyph unicode="n" d="M139 0v1001h156v-135q58 78 145.5 120t190.5 42q156 0 241.5 -86.5t85.5 -243.5v-698h-155v614q0 155 -43.5 216t-153.5 61q-73 0 -144.5 -38.5t-119 -107t-47.5 -147.5v-598h-156z" />
<glyph unicode="o" horiz-adv-x="1167" d="M82 492q0 126 42 229.5t112.5 169.5t161.5 101.5t192 35.5q221 0 358 -143t137 -375q0 -109 -30.5 -200t-81 -152.5t-117.5 -104t-138.5 -61.5t-144.5 -19q-211 0 -351 143.5t-140 375.5zM236 498q0 -178 93 -293t251 -115q162 0 258 116t96 298q0 68 -20 136.5 t-59.5 130.5t-109.5 101t-159 39q-87 0 -155.5 -36t-110 -95.5t-63 -131.5t-21.5 -150z" />
<glyph unicode="p" horiz-adv-x="1130" d="M137 -453l2 1454h154v-90q102 117 276 117q136 0 247 -74t172 -197t61 -268q0 -240 -124 -378t-333 -138q-80 0 -163.5 29t-135.5 80v-469zM293 223q100 -119 291 -119q59 0 114 24t100.5 69t73 120t27.5 168q0 187 -96 300.5t-250 113.5q-44 0 -87.5 -12t-83 -35.5 t-64.5 -65.5t-25 -96v-467z" />
<glyph unicode="q" horiz-adv-x="1130" d="M82 489q0 145 61 268t171 197t245 74q88 0 160 -32t117 -85v90h155v-1388l-155 -66v535q-51 -51 -134.5 -80t-164.5 -29q-208 0 -331.5 138t-123.5 378zM231 485q0 -93 27.5 -168t73.5 -120t101 -69t114 -24q192 0 289 119v467q0 54 -25 96t-64.5 65.5t-83 35.5t-85.5 12 q-155 0 -251 -113t-96 -301z" />
<glyph unicode="r" horiz-adv-x="688" d="M139 0v1001h154v-151q36 80 126 129t175 49q34 0 68 -6l-44 -141q-19 3 -39 3q-51 0 -107 -22q-76 -30 -127.5 -89t-51.5 -126v-647h-154z" />
<glyph unicode="s" horiz-adv-x="874" d="M92 39l25 137q171 -67 311 -67q95 0 147 35.5t52 105.5q0 62 -57.5 106t-198.5 99q-140 54 -207.5 124t-67.5 171q0 87 53.5 152.5t133.5 96.5t172 31q145 0 301 -59l-39 -127q-138 59 -260 59q-95 0 -153 -40t-58 -107q0 -63 59.5 -106.5t192.5 -88.5 q63 -22 110.5 -47.5t89.5 -61.5t64 -84.5t22 -107.5q0 -141 -98.5 -214t-263.5 -73q-85 0 -177 20.5t-153 45.5z" />
<glyph unicode="t" horiz-adv-x="716" d="M49 885v116h148v361l155 65v-426h262l-18 -116h-244v-611q0 -81 26.5 -124.5t90.5 -43.5q82 0 158 39l-23 -131q-77 -41 -160 -41q-124 0 -185.5 74.5t-61.5 247.5v590h-148z" />
<glyph unicode="u" d="M139 305v696h156v-614q0 -154 43.5 -214t153.5 -60q130 0 220.5 87.5t90.5 196.5v604h155v-1001h-155v137q-59 -78 -146.5 -121t-189.5 -43q-157 0 -242.5 87t-85.5 245z" />
<glyph unicode="v" horiz-adv-x="964" d="M33 1001h172l299 -849l264 849h170l-352 -1001h-168z" />
<glyph unicode="w" horiz-adv-x="1492" d="M37 1001h158l217 -798l264 798h137l274 -774l211 774h160l-307 -1001h-129l-287 811l-274 -811h-129z" />
<glyph unicode="x" horiz-adv-x="919" d="M8 0l373 514l-354 487h182l262 -362l262 362h160l-342 -473l381 -528h-180l-291 403l-291 -403h-162z" />
<glyph unicode="y" d="M139 303v698h156v-614q0 -153 44 -213.5t155 -60.5q130 0 219.5 87t89.5 195v606h155v-1001q0 -215 -123 -334t-323 -119q-84 0 -176 20t-146 46l-24 151q60 -35 154 -61.5t174 -26.5q309 0 309 308v151q-57 -77 -144.5 -119.5t-191.5 -42.5q-155 0 -241.5 86.5 t-86.5 243.5z" />
<glyph unicode="z" horiz-adv-x="878" d="M66 0v104l593 783h-571v114h743v-104l-593 -782h608l-21 -115h-759z" />
<glyph unicode="{" horiz-adv-x="731" d="M88 537v116q37 4 66 14t47.5 22t31.5 30t19 32t9.5 35t4 31.5t0.5 28.5q0 92 -12 208.5t-12 196.5q0 285 323 285h84l-20 -129h-62q-170 0 -170 -205q0 -45 12.5 -156.5t12.5 -203.5q0 -120 -43.5 -173.5t-130.5 -72.5q87 -19 130.5 -72.5t43.5 -173.5q0 -91 -12.5 -203 t-12.5 -159q0 -203 170 -203h62l20 -131h-84q-323 0 -323 285q0 80 12 197t12 208q0 21 -1 34t-5.5 37.5t-16 41t-30 35t-50.5 30t-75 15.5z" />
<glyph unicode="}" horiz-adv-x="745" d="M88 -346l21 131h61q170 0 170 203q0 47 -12.5 159t-12.5 203q0 120 43.5 173.5t130.5 72.5q-87 19 -130.5 72.5t-43.5 173.5q0 92 12.5 203.5t12.5 156.5q0 205 -170 205h-61l-21 129h84q324 0 324 -285q0 -80 -12.5 -196.5t-12.5 -208.5q0 -18 0.5 -28.5t4 -31.5 t9.5 -35t19 -32t31.5 -30t47.5 -22t66 -14v-116q-43 -4 -75 -15.5t-50.5 -30t-30 -35t-16 -41t-5.5 -37.5t-1 -34q0 -91 12.5 -208t12.5 -197q0 -285 -324 -285h-84z" />
<glyph unicode="&#xa1;" horiz-adv-x="466" d="M133 870v115l203 84v-199h-203zM152 -348l16 1038h131l16 -1038h-163z" />
<glyph unicode="&#xa2;" horiz-adv-x="954" d="M82 487q0 213 107 352.5t303 176.5v184l122 51v-223q101 0 162 -12.5t127 -40.5l-41 -129q-65 24 -116 33.5t-128 9.5q-75 0 -141 -23.5t-119 -69t-83.5 -121t-30.5 -171.5q0 -95 24.5 -168t61 -115t86.5 -69.5t94 -36.5t90 -9q151 0 283 62l-23 -152q-115 -41 -246 -43 v-161l-122 -52v222q-186 31 -298 170.5t-112 334.5z" />
<glyph unicode="&#xa3;" horiz-adv-x="954" d="M119 0v125q143 90 143 315q0 105 -39 305t-39 265q0 177 119 292t285 115q174 0 307 -78l-72 -112q-136 61 -227 61q-110 0 -177 -83t-67 -220q0 -59 25 -213h414l-21 -123h-371q17 -121 17 -176q0 -195 -117 -328h561l-31 -145h-710z" />
<glyph unicode="&#xa5;" horiz-adv-x="1093" d="M27 1391h166l352 -697l352 697h164l-393 -734h331l-20 -122h-363v-111h383l-20 -123h-363v-301h-155v301h-365l21 123h344v111h-365l21 122h299z" />
<glyph unicode="&#xa8;" horiz-adv-x="606" d="M27 1106v131l206 82v-213h-206zM375 1106v131l207 82v-213h-207z" />
<glyph unicode="&#xa9;" horiz-adv-x="1773" d="M94 766q0 162 63 309.5t169 253.5t252 169t307 63q162 0 309 -63t253.5 -169t169 -253.5t62.5 -309.5q0 -161 -62.5 -308t-169 -253t-253.5 -169t-309 -63q-161 0 -307 63t-252 169t-169 253t-63 308zM211 766q0 -187 90.5 -346t245.5 -251.5t338 -92.5q184 0 340 92.5 t246 251t90 346.5q0 141 -53.5 269t-143.5 221t-215.5 147.5t-263.5 54.5q-183 0 -338 -92.5t-245.5 -252t-90.5 -347.5zM414 754q0 -142 54.5 -253.5t164 -178t258.5 -66.5q151 0 260 51l-18 99q-121 -46 -232 -46q-161 0 -261.5 111t-100.5 293q0 103 32 184t85.5 129.5 t119 73.5t137.5 25q104 0 226 -43l14 98q-96 45 -242 45q-222 0 -359.5 -147.5t-137.5 -374.5z" />
<glyph unicode="&#xab;" horiz-adv-x="993" d="M80 690l268 354l125 -86l-205 -268l205 -268l-125 -86zM520 690l271 354l122 -86l-204 -268l204 -268l-122 -86z" />
<glyph unicode="&#xad;" horiz-adv-x="677" d="M96 532v134h488l-23 -134h-465z" />
<glyph unicode="&#xae;" horiz-adv-x="1773" d="M94 766q0 162 63 309.5t169 253.5t252 169t307 63q162 0 309 -63t253.5 -169t169 -253.5t62.5 -309.5q0 -161 -62.5 -308t-169 -253t-253.5 -169t-309 -63q-161 0 -307 63t-252 169t-169 253t-63 308zM213 766q0 -187 90 -346t245 -251.5t337 -92.5q184 0 340.5 92.5 t247 251.5t90.5 346q0 141 -53.5 269t-144.5 221t-216.5 147.5t-263.5 54.5q-183 0 -337.5 -92.5t-244.5 -252t-90 -347.5zM594 274v983h244q176 0 261 -73t85 -209q0 -109 -67.5 -179.5t-172.5 -93.5l289 -419h-146l-278 407h-92v-416h-123zM717 807h112q43 0 79 7.5 t70.5 25.5t54.5 54t20 87q0 81 -55.5 125.5t-161.5 44.5h-119v-344z" />
<glyph unicode="&#xaf;" horiz-adv-x="718" d="M78 1137v161h559l-25 -161h-534z" />
<glyph unicode="&#xb0;" horiz-adv-x="729" d="M80 1096q0 118 83.5 200t201.5 82t201 -82t83 -200q0 -117 -82.5 -198t-201.5 -81q-118 0 -201.5 81.5t-83.5 197.5zM201 1096q0 -75 46.5 -124.5t119.5 -49.5q70 0 115.5 49.5t45.5 124.5q0 76 -45.5 127t-115.5 51q-73 0 -119.5 -51t-46.5 -127z" />
<glyph unicode="&#xb4;" horiz-adv-x="663" d="M172 1106l240 260h225l-315 -260h-150z" />
<glyph unicode="&#xb8;" horiz-adv-x="587" d="M102 -362l31 92q52 -27 105 -27q38 0 59.5 16t21.5 45q0 68 -151 80l59 174h129l-41 -116q64 -1 105 -39.5t41 -95.5q0 -41 -15.5 -72t-38 -47.5t-53.5 -27t-55 -13t-49 -2.5q-84 0 -148 33z" />
<glyph unicode="&#xbb;" horiz-adv-x="993" d="M80 422l205 268l-205 268l123 86l270 -354l-270 -354zM520 422l205 268l-205 268l125 86l268 -354l-268 -354z" />
<glyph unicode="&#xbf;" horiz-adv-x="1003" d="M115 8q0 64 20.5 119.5t53.5 97t72.5 78.5t79 70t72.5 65.5t53.5 71t20.5 80.5v127h136v-152q0 -56 -19.5 -104t-51 -84t-70 -69t-76.5 -65t-69.5 -65.5t-51 -77t-19.5 -92.5q0 -78 42 -128.5t102 -69.5t135 -19q141 0 282 86l72 -123q-51 -29 -91.5 -47.5t-117 -36.5 t-160.5 -18q-83 0 -156.5 22.5t-132 65t-92.5 112t-34 156.5zM457 870v115l202 84v-199h-202z" />
<glyph unicode="&#xc0;" horiz-adv-x="1251" d="M49 0l492 1391h155l494 -1391h-156l-139 406h-551l-139 -406h-156zM223 1755h226l239 -260h-149zM395 551h449l-226 649z" />
<glyph unicode="&#xc1;" horiz-adv-x="1251" d="M49 0l492 1391h155l494 -1391h-156l-139 406h-551l-139 -406h-156zM395 551h449l-226 649zM551 1495l240 260h225l-316 -260h-149z" />
<glyph unicode="&#xc2;" horiz-adv-x="1251" d="M49 0l492 1391h155l494 -1391h-156l-139 406h-551l-139 -406h-156zM330 1532l209 233h159l211 -233l-131 -55l-162 190l-155 -190zM395 551h449l-226 649z" />
<glyph unicode="&#xc3;" horiz-adv-x="1251" d="M49 0l492 1391h155l494 -1391h-156l-139 406h-551l-139 -406h-156zM336 1544q23 64 71.5 100.5t108.5 36.5q43 0 105 -31.5t94 -31.5q50 0 94 55l92 -45q-63 -137 -182 -137q-46 0 -106 30.5t-93 30.5q-45 0 -94 -53zM395 551h449l-226 649z" />
<glyph unicode="&#xc4;" horiz-adv-x="1251" d="M49 0l492 1391h155l494 -1391h-156l-139 406h-551l-139 -406h-156zM338 1495v131l207 82v-213h-207zM395 551h449l-226 649zM686 1495v131l207 82v-213h-207z" />
<glyph unicode="&#xc5;" horiz-adv-x="1251" d="M49 0l492 1391h155l494 -1391h-156l-139 406h-551l-139 -406h-156zM395 551h449l-226 649zM403 1683q0 85 63.5 146t151.5 61t152 -61t64 -146q0 -90 -66.5 -149t-149.5 -59q-89 0 -152 61t-63 147zM516 1683q0 -45 27 -78.5t75 -33.5t74.5 33.5t26.5 78.5t-26.5 77 t-74.5 32t-75 -32t-27 -77z" />
<glyph unicode="&#xc6;" horiz-adv-x="1769" d="M49 0l866 1391h750v-146h-592v-444h504l-25 -146h-479v-510h604l-22 -145h-737v344h-482l-213 -344h-174zM526 489h392v629z" />
<glyph unicode="&#xc7;" horiz-adv-x="1193" d="M86 676q0 174 58 317t156 235t224.5 141.5t266.5 49.5q196 0 335 -61l-20 -129q-180 61 -313 61q-85 0 -164 -22.5t-149.5 -70.5t-122.5 -117t-82.5 -169t-30.5 -219q0 -275 141 -432.5t391 -157.5q140 0 326 66l20 -127q-135 -62 -321 -68l-23 -71q64 -1 105 -39.5 t41 -95.5q0 -41 -15.5 -72t-38 -47.5t-53.5 -27t-55 -13t-49 -2.5q-84 0 -148 33l31 92q52 -27 104 -27q39 0 60.5 16t21.5 45q0 68 -151 80l45 133q-186 18 -321 114.5t-202 246.5t-67 338z" />
<glyph unicode="&#xc8;" horiz-adv-x="1003" d="M152 0v1391h749v-146h-594v-444h504l-23 -146h-481v-510h604l-22 -145h-737zM184 1755h226l239 -260h-149z" />
<glyph unicode="&#xc9;" horiz-adv-x="1003" d="M152 0v1391h749v-146h-594v-444h504l-23 -146h-481v-510h604l-22 -145h-737zM338 1495l240 260h225l-316 -260h-149z" />
<glyph unicode="&#xca;" horiz-adv-x="1003" d="M152 0v1391h749v-146h-594v-444h504l-23 -146h-481v-510h604l-22 -145h-737zM223 1532l209 233h160l211 -233l-131 -55l-162 190l-156 -190z" />
<glyph unicode="&#xcb;" horiz-adv-x="1003" d="M152 0v1391h749v-146h-594v-444h504l-23 -146h-481v-510h604l-22 -145h-737zM233 1495v131l207 82v-213h-207zM582 1495v131l206 82v-213h-206z" />
<glyph unicode="&#xcc;" horiz-adv-x="456" d="M-154 1755h226l239 -260h-149zM152 0v1391h153v-1391h-153z" />
<glyph unicode="&#xcd;" horiz-adv-x="456" d="M137 1495l240 260h225l-315 -260h-150zM152 0h153v1391h-153v-1391z" />
<glyph unicode="&#xce;" horiz-adv-x="456" d="M-61 1532l208 233h160l211 -233l-131 -55l-162 190l-155 -190zM152 0h153v1391h-153v-1391z" />
<glyph unicode="&#xcf;" horiz-adv-x="456" d="M-51 1495v131l207 82v-213h-207zM152 0v1391h153v-1391h-153zM297 1495v131l207 82v-213h-207z" />
<glyph unicode="&#xd0;" horiz-adv-x="1419" d="M27 614l18 121h209v656h285q201 0 354.5 -49t249.5 -140t144 -213.5t48 -275.5q0 -152 -49 -280t-145.5 -225.5t-252.5 -152.5t-358 -55h-276v614h-227zM410 119h127q302 0 472.5 153t170.5 437t-168.5 423.5t-487.5 139.5h-114v-537h262l-19 -121h-243v-495z" />
<glyph unicode="&#xd1;" horiz-adv-x="1347" d="M178 0v1391h230l616 -1143v1143h145v-1391h-182l-665 1231v-1231h-144zM412 1544q23 64 71.5 100.5t108.5 36.5q43 0 105 -31.5t94 -31.5q50 0 94 55l92 -45q-63 -137 -182 -137q-46 0 -106 30.5t-93 30.5q-45 0 -94 -53z" />
<glyph unicode="&#xd2;" horiz-adv-x="1472" d="M86 686q0 156 47.5 291.5t132 233t208.5 153t271 55.5q151 0 274 -56t202.5 -153t122 -225t42.5 -274q0 -342 -181 -540t-482 -198q-194 0 -340 95.5t-221.5 256t-75.5 361.5zM244 694q0 -168 58 -301.5t170.5 -212t262.5 -78.5q152 0 264 78t169 213t57 309 q0 120 -32.5 226t-92.5 187t-153.5 128t-207.5 47q-154 0 -268 -80.5t-170.5 -214t-56.5 -301.5zM385 1755h225l240 -260h-150z" />
<glyph unicode="&#xd3;" horiz-adv-x="1472" d="M86 686q0 -201 75.5 -361.5t221.5 -256t340 -95.5q301 0 482 198t181 540q0 146 -42.5 274t-122 225t-202.5 153t-274 56q-147 0 -271 -55.5t-208.5 -153t-132 -233t-47.5 -291.5zM244 694q0 168 56.5 301.5t170.5 214t268 80.5q114 0 207.5 -47t153.5 -128t92.5 -187 t32.5 -226q0 -174 -57 -309t-169 -213t-264 -78q-150 0 -262.5 78.5t-170.5 212t-58 301.5zM600 1495l240 260h225l-315 -260h-150z" />
<glyph unicode="&#xd4;" horiz-adv-x="1472" d="M86 686q0 -201 75.5 -361.5t221.5 -256t340 -95.5q301 0 482 198t181 540q0 146 -42.5 274t-122 225t-202.5 153t-274 56q-147 0 -271 -55.5t-208.5 -153t-132 -233t-47.5 -291.5zM244 694q0 168 56.5 301.5t170.5 214t268 80.5q114 0 207.5 -47t153.5 -128t92.5 -187 t32.5 -226q0 -174 -57 -309t-169 -213t-264 -78q-150 0 -262.5 78.5t-170.5 212t-58 301.5zM453 1532l209 233h159l211 -233l-131 -55l-162 190l-155 -190z" />
<glyph unicode="&#xd5;" horiz-adv-x="1472" d="M86 686q0 156 47.5 291.5t132 233t208.5 153t271 55.5q151 0 274 -56t202.5 -153t122 -225t42.5 -274q0 -342 -181 -540t-482 -198q-194 0 -340 95.5t-221.5 256t-75.5 361.5zM244 694q0 -168 58 -301.5t170.5 -212t262.5 -78.5q152 0 264 78t169 213t57 309 q0 120 -32.5 226t-92.5 187t-153.5 128t-207.5 47q-154 0 -268 -80.5t-170.5 -214t-56.5 -301.5zM455 1544q23 64 71.5 100.5t108.5 36.5q43 0 105 -31.5t94 -31.5q50 0 94 55l92 -45q-63 -137 -182 -137q-46 0 -106 30.5t-93 30.5q-45 0 -94 -53z" />
<glyph unicode="&#xd6;" horiz-adv-x="1472" d="M86 686q0 156 47.5 291.5t132 233t208.5 153t271 55.5q151 0 274 -56t202.5 -153t122 -225t42.5 -274q0 -342 -181 -540t-482 -198q-194 0 -340 95.5t-221.5 256t-75.5 361.5zM244 694q0 -168 58 -301.5t170.5 -212t262.5 -78.5q152 0 264 78t169 213t57 309 q0 120 -32.5 226t-92.5 187t-153.5 128t-207.5 47q-154 0 -268 -80.5t-170.5 -214t-56.5 -301.5zM461 1495v131l207 82v-213h-207zM809 1495v131l207 82v-213h-207z" />
<glyph unicode="&#xd7;" horiz-adv-x="1173" d="M98 172l398 406l-398 405l90 92l400 -405l397 405l90 -92l-397 -405l397 -406l-92 -92l-395 403l-398 -403z" />
<glyph unicode="&#xd8;" horiz-adv-x="1476" d="M84 -121l195 277q-92 97 -141.5 233.5t-49.5 296.5q0 209 81 375.5t232 262t347 95.5q203 0 352 -100l114 162h148l-168 -240q94 -96 144.5 -234t50.5 -296q0 -342 -181.5 -540t-482.5 -198q-197 0 -348 101l-137 -195h-156zM246 694q0 -248 123 -411l647 917 q-117 90 -275 90q-154 0 -268 -80.5t-170.5 -214t-56.5 -301.5zM459 193q121 -91 278 -91q152 0 264 78t169 213t57 309q0 247 -123 410z" />
<glyph unicode="&#xd9;" horiz-adv-x="1282" d="M150 477v914h153v-897q0 -396 338 -396q93 0 160 28.5t104.5 83.5t54.5 124t17 160v897h156v-914q0 -255 -122 -379.5t-370 -124.5q-237 0 -364 126.5t-127 377.5zM291 1755h225l240 -260h-150z" />
<glyph unicode="&#xda;" horiz-adv-x="1282" d="M150 477q0 -251 127 -377.5t364 -126.5q248 0 370 124.5t122 379.5v914h-156v-897q0 -91 -17 -160t-54.5 -124t-104.5 -83.5t-160 -28.5q-338 0 -338 396v897h-153v-914zM500 1495l239 260h226l-316 -260h-149z" />
<glyph unicode="&#xdb;" horiz-adv-x="1282" d="M150 477q0 -251 127 -377.5t364 -126.5q248 0 370 124.5t122 379.5v914h-156v-897q0 -91 -17 -160t-54.5 -124t-104.5 -83.5t-160 -28.5q-338 0 -338 396v897h-153v-914zM352 1532l209 233h160l211 -233l-131 -55l-162 190l-156 -190z" />
<glyph unicode="&#xdc;" horiz-adv-x="1282" d="M150 477v914h153v-897q0 -396 338 -396q93 0 160 28.5t104.5 83.5t54.5 124t17 160v897h156v-914q0 -255 -122 -379.5t-370 -124.5q-237 0 -364 126.5t-127 377.5zM362 1495v131l207 82v-213h-207zM711 1495v131l207 82v-213h-207z" />
<glyph unicode="&#xdd;" horiz-adv-x="1093" d="M33 1391h166l352 -693l352 693h164l-444 -828v-563h-156v571zM379 1495l239 260h226l-316 -260h-149z" />
<glyph unicode="&#xde;" d="M162 0v1360l157 67v-260h144q78 0 148 -9.5t145 -37t129 -71t88.5 -118t34.5 -171.5q0 -82 -23.5 -148t-65.5 -110.5t-94.5 -76t-116 -49t-123 -25t-122.5 -7.5h-144v-344h-157zM319 489h162q168 0 257 69t89 202q0 130 -85.5 199t-249.5 69h-173v-539z" />
<glyph unicode="&#xdf;" horiz-adv-x="1230" d="M117 0v1020q0 214 129 322t354 108q50 0 103 -10.5t106.5 -35.5t95 -60.5t68 -91t26.5 -122.5q0 -63 -29 -111t-72 -74.5t-93.5 -50.5t-93.5 -40t-72 -41t-29 -57q0 -63 59 -106.5t193 -90.5q133 -46 210 -116t77 -183q0 -141 -99 -214t-264 -73q-84 0 -175 20t-152 44 l22 139q195 -67 312 -67q94 0 146 35.5t52 105.5q0 62 -57 106t-197 99q-140 54 -207 123t-67 170q0 52 21 91.5t54 63.5t73.5 43.5t80.5 35.5t73 34t54 46t21 64q0 45 -14.5 80t-38.5 57.5t-57 37t-66.5 20.5t-69.5 6q-322 0 -322 -348v-979h-155z" />
<glyph unicode="&#xe0;" horiz-adv-x="1130" d="M82 489q0 145 61 268t171 197t245 74q87 0 159 -32t118 -85v90h155v-1001h-155v82q-51 -51 -135 -80t-164 -29q-208 0 -331.5 138t-123.5 378zM229 485q0 -93 28 -168t74 -120t101 -69t113 -24q194 0 291 119v467q0 54 -25 96t-65 65.5t-83.5 35.5t-87.5 12 q-154 0 -250 -113.5t-96 -300.5zM299 1378h225l240 -260h-150z" />
<glyph unicode="&#xe1;" horiz-adv-x="1130" d="M82 489q0 145 61 268t171 197t245 74q87 0 159 -32t118 -85v90h155v-1001h-155v82q-51 -51 -135 -80t-164 -29q-208 0 -331.5 138t-123.5 378zM229 485q0 -93 28 -168t74 -120t101 -69t113 -24q194 0 291 119v467q0 54 -25 96t-65 65.5t-83.5 35.5t-87.5 12 q-154 0 -250 -113.5t-96 -300.5zM393 1118l240 260h225l-315 -260h-150z" />
<glyph unicode="&#xe2;" horiz-adv-x="1130" d="M82 489q0 145 61 268t171 197t245 74q87 0 159 -32t118 -85v90h155v-1001h-155v82q-51 -51 -135 -80t-164 -29q-208 0 -331.5 138t-123.5 378zM229 485q0 -93 28 -168t74 -120t101 -69t113 -24q194 0 291 119v467q0 54 -25 96t-65 65.5t-83.5 35.5t-87.5 12 q-154 0 -250 -113.5t-96 -300.5zM287 1157l209 234h159l211 -234l-131 -55l-162 190l-155 -190z" />
<glyph unicode="&#xe3;" horiz-adv-x="1130" d="M82 489q0 145 61 268t171 197t245 74q87 0 159 -32t118 -85v90h155v-1001h-155v82q-51 -51 -135 -80t-164 -29q-208 0 -331.5 138t-123.5 378zM229 485q0 -93 28 -168t74 -120t101 -69t113 -24q194 0 291 119v467q0 54 -25 96t-65 65.5t-83.5 35.5t-87.5 12 q-154 0 -250 -113.5t-96 -300.5zM309 1174q23 64 71.5 100.5t108.5 36.5q43 0 105 -32t94 -32q49 0 94 56l92 -46q-63 -137 -182 -137q-46 0 -105.5 31t-92.5 31q-45 0 -95 -54z" />
<glyph unicode="&#xe4;" horiz-adv-x="1130" d="M82 489q0 145 61 268t171 197t245 74q87 0 159 -32t118 -85v90h155v-1001h-155v82q-51 -51 -135 -80t-164 -29q-208 0 -331.5 138t-123.5 378zM229 485q0 -93 28 -168t74 -120t101 -69t113 -24q194 0 291 119v467q0 54 -25 96t-65 65.5t-83.5 35.5t-87.5 12 q-154 0 -250 -113.5t-96 -300.5zM311 1118v131l207 82v-213h-207zM659 1118v131l207 82v-213h-207z" />
<glyph unicode="&#xe5;" horiz-adv-x="1130" d="M82 489q0 145 61 268t171 197t245 74q87 0 159 -32t118 -85v90h155v-1001h-155v82q-51 -51 -135 -80t-164 -29q-208 0 -331.5 138t-123.5 378zM229 485q0 -93 28 -168t74 -120t101 -69t113 -24q194 0 291 119v467q0 54 -25 96t-65 65.5t-83.5 35.5t-87.5 12 q-154 0 -250 -113.5t-96 -300.5zM369 1319q0 85 63.5 146t151.5 61t151.5 -61t63.5 -146q0 -90 -66.5 -149.5t-148.5 -59.5q-89 0 -152 61.5t-63 147.5zM481 1319q0 -45 27.5 -79t75.5 -34t74 34t26 79t-26 76.5t-74 31.5t-75.5 -32t-27.5 -76z" />
<glyph unicode="&#xe6;" horiz-adv-x="1734" d="M88 256q0 77 30 135t78.5 92.5t122 55.5t149 28.5t169.5 7.5h102v140q0 182 -223 182q-191 0 -377 -94l23 137q69 38 164 61t186 23q133 0 216 -39t128 -119q68 81 165 121.5t204 40.5q209 0 323.5 -128t114.5 -361q0 -40 -4 -86h-766q6 -169 115 -259t268 -90 q66 0 151.5 21.5t157.5 56.5l-24 -141q-56 -28 -135 -48t-156 -20q-161 0 -277.5 56t-181.5 164q-58 -104 -158.5 -162t-226.5 -58q-145 0 -241.5 76t-96.5 207zM244 256q0 -65 49.5 -109.5t144.5 -44.5q131 0 214 96t83 257h-137q-60 0 -108 -4.5t-95.5 -17.5t-79.5 -34.5 t-51.5 -57.5t-19.5 -85zM893 575h623q0 324 -293 324q-137 0 -232 -95.5t-98 -228.5z" />
<glyph unicode="&#xe7;" horiz-adv-x="952" d="M82 487q0 250 144.5 395.5t402.5 145.5q93 0 151 -13t121 -40l-41 -129q-66 24 -116 33.5t-128 9.5q-74 0 -139.5 -23.5t-118.5 -69t-83.5 -121t-30.5 -171.5q0 -95 24 -168t60.5 -115t86.5 -69t94.5 -36.5t90.5 -9.5q147 0 283 62l-25 -152q-100 -34 -215 -41l-25 -73 q64 -1 105 -39.5t41 -95.5q0 -41 -15.5 -72t-38 -47.5t-53.5 -27t-55 -13t-49 -2.5q-83 0 -147 33l30 92q52 -27 105 -27q39 0 60.5 16t21.5 45q0 68 -152 80l45 133q-196 25 -315 166t-119 344z" />
<glyph unicode="&#xe8;" horiz-adv-x="1083" d="M82 504q0 105 27.5 192.5t74.5 148t109.5 102.5t132.5 61.5t145 19.5q209 0 324 -128t115 -361q0 -36 -4 -86h-768q5 -114 60 -194.5t138.5 -117.5t186.5 -37q66 0 151.5 21.5t157.5 56.5l-25 -141q-56 -28 -135 -48t-156 -20q-255 0 -394.5 138t-139.5 393zM240 575h622 q0 324 -293 324q-137 0 -231.5 -95.5t-97.5 -228.5zM244 1378h225l240 -260h-150z" />
<glyph unicode="&#xe9;" horiz-adv-x="1083" d="M82 504q0 105 27.5 192.5t74.5 148t109.5 102.5t132.5 61.5t145 19.5q209 0 324 -128t115 -361q0 -36 -4 -86h-768q5 -114 60 -194.5t138.5 -117.5t186.5 -37q66 0 151.5 21.5t157.5 56.5l-25 -141q-56 -28 -135 -48t-156 -20q-255 0 -394.5 138t-139.5 393zM240 575h622 q0 324 -293 324q-137 0 -231.5 -95.5t-97.5 -228.5zM377 1118l239 260h226l-316 -260h-149z" />
<glyph unicode="&#xea;" horiz-adv-x="1083" d="M82 504q0 105 27.5 192.5t74.5 148t109.5 102.5t132.5 61.5t145 19.5q209 0 324 -128t115 -361q0 -36 -4 -86h-768q5 -114 60 -194.5t138.5 -117.5t186.5 -37q66 0 151.5 21.5t157.5 56.5l-25 -141q-56 -28 -135 -48t-156 -20q-255 0 -394.5 138t-139.5 393zM240 575h622 q0 324 -293 324q-137 0 -231.5 -95.5t-97.5 -228.5zM272 1159l209 234h160l211 -234l-131 -55l-162 190l-156 -190z" />
<glyph unicode="&#xeb;" horiz-adv-x="1083" d="M82 504q0 105 27.5 192.5t74.5 148t109.5 102.5t132.5 61.5t145 19.5q209 0 324 -128t115 -361q0 -36 -4 -86h-768q5 -114 60 -194.5t138.5 -117.5t186.5 -37q66 0 151.5 21.5t157.5 56.5l-25 -141q-56 -28 -135 -48t-156 -20q-255 0 -394.5 138t-139.5 393zM240 575h622 q0 324 -293 324q-137 0 -231.5 -95.5t-97.5 -228.5zM285 1118v131l207 82v-213h-207zM633 1118v131l207 82v-213h-207z" />
<glyph unicode="&#xec;" horiz-adv-x="434" d="M-168 1378h225l240 -260h-150zM139 0v1001h156v-1001h-156z" />
<glyph unicode="&#xed;" horiz-adv-x="434" d="M121 1118l239 260h226l-316 -260h-149zM139 0v1001h156v-1001h-156z" />
<glyph unicode="&#xee;" horiz-adv-x="434" d="M-72 1159l209 234h160l211 -234l-131 -55l-162 190l-156 -190zM139 0v1001h156v-1001h-156z" />
<glyph unicode="&#xef;" horiz-adv-x="434" d="M-63 1118v131l206 82v-213h-206zM139 0v1001h156v-1001h-156zM285 1118v131l207 82v-213h-207z" />
<glyph unicode="&#xf0;" horiz-adv-x="1042" d="M72 426q0 130 56.5 228t147.5 147t201 49q203 0 330 -154q-31 343 -227 486l-80 -154l-86 45l84 160q-91 44 -203 61l55 111q114 -21 203 -64l80 160l88 -45l-84 -162q162 -104 248 -286.5t86 -419.5q0 -98 -15 -186t-49.5 -167.5t-86.5 -136.5t-129.5 -91t-174.5 -34 q-190 0 -317 125t-127 328zM236 412q0 -130 74 -219t198 -89q123 0 197.5 89t74.5 219q0 133 -71.5 219t-200.5 86q-130 0 -201 -86t-71 -219z" />
<glyph unicode="&#xf1;" d="M139 0v1001h156v-135q58 78 145.5 120t190.5 42q156 0 241.5 -86.5t85.5 -243.5v-698h-155v614q0 155 -43.5 216t-153.5 61q-73 0 -144.5 -38.5t-119 -107t-47.5 -147.5v-598h-156zM268 1174q23 64 72 100.5t109 36.5q43 0 104.5 -32t93.5 -32q49 0 94 56l93 -46 q-63 -137 -183 -137q-46 0 -105.5 31t-92.5 31q-45 0 -95 -54z" />
<glyph unicode="&#xf2;" horiz-adv-x="1167" d="M82 492q0 126 42 229.5t112.5 169.5t161.5 101.5t192 35.5q221 0 358 -143t137 -375q0 -109 -30.5 -200t-81 -152.5t-117.5 -104t-138.5 -61.5t-144.5 -19q-211 0 -351 143.5t-140 375.5zM236 498q0 -178 93 -293t251 -115q162 0 258 116t96 298q0 68 -20 136.5 t-59.5 130.5t-109.5 101t-159 39q-87 0 -155.5 -36t-110 -95.5t-63 -131.5t-21.5 -150zM238 1378h225l239 -260h-149z" />
<glyph unicode="&#xf3;" horiz-adv-x="1167" d="M82 492q0 -232 140 -375.5t351 -143.5q73 0 144.5 19t138.5 61.5t117.5 104t81 152.5t30.5 200q0 232 -137 375t-358 143q-101 0 -192 -35.5t-161.5 -101.5t-112.5 -169.5t-42 -229.5zM236 498q0 78 21.5 150t63 131.5t110 95.5t155.5 36q89 0 159 -39t109.5 -101 t59.5 -130.5t20 -136.5q0 -182 -96 -298t-258 -116q-158 0 -251 115t-93 293zM397 1118l240 260h225l-315 -260h-150z" />
<glyph unicode="&#xf4;" horiz-adv-x="1167" d="M82 492q0 -232 140 -375.5t351 -143.5q73 0 144.5 19t138.5 61.5t117.5 104t81 152.5t30.5 200q0 232 -137 375t-358 143q-101 0 -192 -35.5t-161.5 -101.5t-112.5 -169.5t-42 -229.5zM236 498q0 78 21.5 150t63 131.5t110 95.5t155.5 36q89 0 159 -39t109.5 -101 t59.5 -130.5t20 -136.5q0 -182 -96 -298t-258 -116q-158 0 -251 115t-93 293zM305 1159l209 234h160l211 -234l-131 -55l-162 190l-156 -190z" />
<glyph unicode="&#xf5;" horiz-adv-x="1167" d="M82 492q0 126 42 229.5t112.5 169.5t161.5 101.5t192 35.5q221 0 358 -143t137 -375q0 -109 -30.5 -200t-81 -152.5t-117.5 -104t-138.5 -61.5t-144.5 -19q-211 0 -351 143.5t-140 375.5zM236 498q0 -178 93 -293t251 -115q162 0 258 116t96 298q0 68 -20 136.5 t-59.5 130.5t-109.5 101t-159 39q-87 0 -155.5 -36t-110 -95.5t-63 -131.5t-21.5 -150zM301 1178q23 64 71.5 100.5t108.5 36.5q43 0 105 -32t94 -32q49 0 94 56l92 -45q-64 -138 -182 -138q-46 0 -106 31t-93 31q-45 0 -94 -53z" />
<glyph unicode="&#xf6;" horiz-adv-x="1167" d="M82 492q0 126 42 229.5t112.5 169.5t161.5 101.5t192 35.5q221 0 358 -143t137 -375q0 -109 -30.5 -200t-81 -152.5t-117.5 -104t-138.5 -61.5t-144.5 -19q-211 0 -351 143.5t-140 375.5zM236 498q0 -178 93 -293t251 -115q162 0 258 116t96 298q0 68 -20 136.5 t-59.5 130.5t-109.5 101t-159 39q-87 0 -155.5 -36t-110 -95.5t-63 -131.5t-21.5 -150zM307 1118v131l207 82v-213h-207zM655 1118v131l207 82v-213h-207z" />
<glyph unicode="&#xf7;" horiz-adv-x="1083" d="M98 530l21 123h866l-20 -123h-867zM449 236q0 43 30 74.5t74 31.5t75 -31.5t31 -74.5q0 -42 -32 -74.5t-74 -32.5q-44 0 -74 32t-30 75zM449 944q0 43 30 75t74 32t75 -32t31 -75t-31.5 -74.5t-74.5 -31.5q-44 0 -74 31.5t-30 74.5z" />
<glyph unicode="&#xf8;" horiz-adv-x="1165" d="M63 -121l162 234q-143 146 -143 379q0 127 41.5 230t112 169t161 101.5t191.5 35.5q137 0 241 -55l95 135h149l-143 -205q155 -146 155 -391q0 -110 -30.5 -201.5t-81 -152.5t-118 -104t-139 -62t-145.5 -19q-129 0 -243 62l-109 -156h-156zM233 500q0 -159 76 -271 l445 637q-70 45 -168 45q-87 0 -156.5 -36t-111.5 -95.5t-63.5 -131t-21.5 -148.5zM401 141q73 -49 179 -49q162 0 258 115t96 297q0 160 -88 278z" />
<glyph unicode="&#xf9;" d="M139 305v696h156v-614q0 -154 43.5 -214t153.5 -60q130 0 220.5 87.5t90.5 196.5v604h155v-1001h-155v137q-59 -78 -146.5 -121t-189.5 -43q-157 0 -242.5 87t-85.5 245zM229 1378h226l239 -260h-149z" />
<glyph unicode="&#xfa;" d="M139 305v696h156v-614q0 -154 43.5 -214t153.5 -60q130 0 220.5 87.5t90.5 196.5v604h155v-1001h-155v137q-59 -78 -146.5 -121t-189.5 -43q-157 0 -242.5 87t-85.5 245zM336 1118l239 260h226l-316 -260h-149z" />
<glyph unicode="&#xfb;" d="M139 305v696h156v-614q0 -154 43.5 -214t153.5 -60q130 0 220.5 87.5t90.5 196.5v604h155v-1001h-155v137q-59 -78 -146.5 -121t-189.5 -43q-157 0 -242.5 87t-85.5 245zM258 1157l209 234h160l211 -234l-131 -55l-162 190l-156 -190z" />
<glyph unicode="&#xfc;" d="M139 305v696h156v-614q0 -154 43.5 -214t153.5 -60q130 0 220.5 87.5t90.5 196.5v604h155v-1001h-155v137q-59 -78 -146.5 -121t-189.5 -43q-157 0 -242.5 87t-85.5 245zM272 1118v131l207 82v-213h-207zM621 1118v131l206 82v-213h-206z" />
<glyph unicode="&#xfd;" d="M139 303v698h156v-614q0 -153 44 -213.5t155 -60.5q130 0 219.5 87t89.5 195v606h155v-1001q0 -215 -123 -334t-323 -119q-84 0 -176 20t-146 46l-24 151q60 -35 154 -61.5t174 -26.5q309 0 309 308v151q-57 -77 -144.5 -119.5t-191.5 -42.5q-155 0 -241.5 86.5 t-86.5 243.5zM336 1118l239 260h226l-316 -260h-149z" />
<glyph unicode="&#xfe;" horiz-adv-x="1130" d="M139 -453v1817l156 63v-516q45 53 116.5 85t159.5 32q135 0 245.5 -74.5t171.5 -197.5t61 -267q0 -240 -123.5 -378t-331.5 -138q-81 0 -164.5 29t-134.5 78v-469zM295 223q95 -119 289 -119q59 0 114 24t100.5 69t73 120t27.5 168q0 186 -95.5 299t-250.5 113 q-43 0 -85.5 -11.5t-82.5 -35t-65 -65.5t-25 -97v-465z" />
<glyph unicode="&#xff;" d="M139 303v698h156v-614q0 -153 44 -213.5t155 -60.5q130 0 219.5 87t89.5 195v606h155v-1001q0 -215 -123 -334t-323 -119q-84 0 -176 20t-146 46l-24 151q60 -35 154 -61.5t174 -26.5q309 0 309 308v151q-57 -77 -144.5 -119.5t-191.5 -42.5q-155 0 -241.5 86.5 t-86.5 243.5zM272 1118v131l207 82v-213h-207zM621 1118v131l206 82v-213h-206z" />
<glyph unicode="&#x152;" horiz-adv-x="1818" d="M59 678q0 174 58 316.5t156 234t224.5 141t266.5 49.5q68 0 165.5 -13t125.5 -13h661v-146h-594v-446h504l-22 -146h-482v-508h604l-22 -145h-686q-31 0 -126.5 -13.5t-158.5 -13.5q-158 0 -286.5 53.5t-213 148.5t-129.5 223t-45 278zM219 692q0 -275 141 -432.5 t392 -157.5q100 0 215 33v1133q-112 28 -199 28q-85 0 -164 -23t-149.5 -72t-122.5 -119t-82.5 -170.5t-30.5 -219.5z" />
<glyph unicode="&#x153;" horiz-adv-x="1937" d="M82 492q0 127 41.5 230t112 169t161 101.5t191.5 35.5q138 0 247 -59t173 -164q66 110 176.5 166.5t236.5 56.5q211 0 326 -128t115 -361q0 -32 -7 -86h-765q5 -114 59.5 -194.5t138 -117.5t185.5 -37q67 0 153 21.5t156 56.5l-23 -141q-58 -28 -136.5 -48t-154.5 -20 q-165 0 -283 58.5t-181 169.5q-70 -113 -187.5 -170.5t-245.5 -57.5q-211 0 -350 143.5t-139 375.5zM233 498q0 -177 94 -291.5t253 -114.5q161 0 256.5 115t95.5 297q0 68 -20 136.5t-59.5 130.5t-109 101t-157.5 39q-87 0 -156.5 -36t-111.5 -95.5t-63.5 -131.5 t-21.5 -150zM1090 575h624q1 92 -22 157.5t-66 100.5t-93.5 50.5t-113.5 15.5q-137 0 -231.5 -95.5t-97.5 -228.5z" />
<glyph unicode="&#x178;" horiz-adv-x="1093" d="M33 1391h166l352 -693l352 693h164l-444 -828v-563h-156v571zM268 1495v131l207 82v-213h-207zM616 1495v131l207 82v-213h-207z" />
<glyph unicode="&#x2c6;" horiz-adv-x="579" d="M0 1116l209 234h160l211 -234l-131 -55l-162 190l-156 -190z" />
<glyph unicode="&#x2dc;" horiz-adv-x="618" d="M27 1178q23 64 71.5 100.5t108.5 36.5q43 0 105 -32t94 -32q49 0 94 56l92 -45q-64 -138 -182 -138q-46 0 -106 31t-93 31q-45 0 -94 -53z" />
<glyph unicode="&#x2000;" horiz-adv-x="945" />
<glyph unicode="&#x2001;" horiz-adv-x="1890" />
<glyph unicode="&#x2002;" horiz-adv-x="945" />
<glyph unicode="&#x2003;" horiz-adv-x="1890" />
<glyph unicode="&#x2004;" horiz-adv-x="630" />
<glyph unicode="&#x2005;" horiz-adv-x="472" />
<glyph unicode="&#x2006;" horiz-adv-x="315" />
<glyph unicode="&#x2007;" horiz-adv-x="315" />
<glyph unicode="&#x2008;" horiz-adv-x="236" />
<glyph unicode="&#x2009;" horiz-adv-x="378" />
<glyph unicode="&#x200a;" horiz-adv-x="105" />
<glyph unicode="&#x2010;" horiz-adv-x="677" d="M96 532v134h488l-23 -134h-465z" />
<glyph unicode="&#x2011;" horiz-adv-x="677" d="M96 532v134h488l-23 -134h-465z" />
<glyph unicode="&#x2012;" horiz-adv-x="677" d="M96 532v134h488l-23 -134h-465z" />
<glyph unicode="&#x2013;" horiz-adv-x="1003" d="M76 461l20 131h832l-21 -131h-831z" />
<glyph unicode="&#x2014;" horiz-adv-x="2002" d="M76 461l20 129h1831l-20 -129h-1831z" />
<glyph unicode="&#x2018;" horiz-adv-x="444" d="M121 1026v150q0 109 46 163.5t130 77.5q-66 -69 -66 -192h93v-113z" />
<glyph unicode="&#x2019;" horiz-adv-x="444" d="M121 1219v112l203 86v-149q0 -109 -46.5 -164t-130.5 -78q66 69 66 193h-92z" />
<glyph unicode="&#x201a;" horiz-adv-x="376" d="M92 0v106l193 82v-143q0 -103 -44 -155.5t-124 -73.5q63 66 63 184h-88z" />
<glyph unicode="&#x201c;" horiz-adv-x="768" d="M121 1026v150q0 109 46 163.5t130 77.5q-66 -69 -66 -192h93v-113zM444 1026v150q0 109 46.5 163.5t130.5 77.5q-66 -69 -66 -192h92v-113z" />
<glyph unicode="&#x201d;" horiz-adv-x="768" d="M121 1219v112l203 86v-149q0 -109 -46.5 -164t-130.5 -78q66 69 66 193h-92zM444 1219v112l203 86v-149q0 -109 -46 -164t-130 -78q66 69 66 193h-93z" />
<glyph unicode="&#x201e;" horiz-adv-x="684" d="M92 0v106l193 82v-143q0 -103 -44 -155.5t-124 -73.5q63 66 63 184h-88zM399 0v106l193 82v-143q0 -103 -44 -155.5t-124 -73.5q63 66 63 184h-88z" />
<glyph unicode="&#x2022;" horiz-adv-x="720" d="M111 666l428 176v-455q-100 99 -199 164t-229 115z" />
<glyph unicode="&#x2026;" horiz-adv-x="1226" d="M94 0v115l203 84v-199h-203zM512 0v115l203 84v-199h-203zM930 0v115l203 84v-199h-203z" />
<glyph unicode="&#x202f;" horiz-adv-x="378" />
<glyph unicode="&#x2039;" horiz-adv-x="552" d="M80 690l268 354l125 -86l-205 -268l205 -268l-125 -86z" />
<glyph unicode="&#x203a;" horiz-adv-x="552" d="M80 422l205 268l-205 268l125 86l268 -354l-268 -354z" />
<glyph unicode="&#x205f;" horiz-adv-x="472" />
<glyph unicode="&#x20ac;" horiz-adv-x="1316" d="M92 485v121h144q0 12 -1.5 36t-1.5 36q0 44 7 102h-148v121h168q43 163 146 282t240 177.5t292 58.5q203 0 336 -61l-19 -131q-189 63 -313 63q-87 0 -167 -24t-150 -70.5t-123.5 -122t-81.5 -172.5h600l-21 -121h-602q-4 -29 -4 -88q0 -57 4 -86h574l-21 -121h-532 q46 -183 178 -283t330 -100q142 0 323 68l21 -127q-140 -70 -363 -70q-263 0 -432.5 139.5t-220.5 372.5h-162z" />
<glyph unicode="&#x2122;" horiz-adv-x="1392" d="M68 1296v95h497l-10 -95h-180v-483h-123v483h-184zM586 813l67 578h138l135 -426l137 426h133l68 -578h-113l-41 410l-139 -410h-107l-131 410l-41 -410h-106z" />
<glyph unicode="&#x25fc;" horiz-adv-x="1003" d="M0 0v1004h1004v-1004h-1004z" />
</font>
</defs>
</svg>
